<svg width="16" height="20" viewBox="0 0 16 20" fill="none" xmlns="http://www.w3.org/2000/svg">
<path d="M13.66 6.39761L8 0.995117L2.34 6.39761C0.78 7.88928 0 9.87816 0 11.7905C0 13.7029 0.78 15.7205 2.34 17.2122C3.9 18.7038 5.95 19.4592 8 19.4592C10.05 19.4592 12.1 18.7038 13.66 17.2122C15.22 15.7205 16 13.7029 16 11.7905C16 9.87816 15.22 7.88928 13.66 6.39761ZM2 12.1348C2.01 10.2224 2.62 9.00802 3.76 7.92752L8 3.7872L12.24 7.97533C13.38 9.04627 13.99 10.2224 14 12.1348H2Z" fill="#D6ECED"/>
</svg>
