<svg width="35" height="35" viewBox="0 0 35 35" fill="none" xmlns="http://www.w3.org/2000/svg">
<path fill-rule="evenodd" clip-rule="evenodd" d="M22.9081 13.1705V13.167C23.2009 13.167 23.4943 13.1728 23.7877 13.1658C24.1646 13.1565 24.4714 12.8333 24.4714 12.4559C24.4714 11.8942 24.4714 11.3318 24.4714 10.7701C24.4714 10.367 24.1523 10.0467 23.7504 10.0462C23.1898 10.0462 22.6292 10.0456 22.0687 10.0462C21.6673 10.0467 21.3477 10.3682 21.3477 10.7712C21.3471 11.3283 21.3453 11.8854 21.3494 12.4425C21.35 12.5259 21.3658 12.6122 21.392 12.691C21.4929 12.9873 21.7648 13.1693 22.0972 13.1711C22.3673 13.1711 22.638 13.1705 22.9081 13.1705ZM17.5 13.8932C15.526 13.8921 13.9212 15.4805 13.8938 17.4452C13.8652 19.4635 15.4805 21.0624 17.4172 21.1038C19.432 21.147 21.0618 19.537 21.1044 17.5787C21.1482 15.5604 19.5195 13.8921 17.5 13.8932ZM10.5268 15.8177V15.8655C10.5268 18.4992 10.5262 21.133 10.5268 23.7667C10.5268 24.1453 10.8547 24.4714 11.2338 24.4714C15.4105 24.472 19.5866 24.472 23.7632 24.4714C24.1459 24.4714 24.472 24.1465 24.472 23.7644C24.4726 21.1342 24.472 18.5027 24.472 15.8731V15.8182H22.7733C23.0131 16.5847 23.0866 17.3647 22.9927 18.1597C22.8987 18.9548 22.6421 19.6945 22.225 20.3782C21.8079 21.0618 21.266 21.6294 20.6039 22.0803C18.8866 23.2505 16.625 23.3532 14.8021 22.33C13.881 21.8137 13.1577 21.0933 12.6525 20.1641C11.9006 18.7798 11.7804 17.3262 12.2214 15.8177C11.6567 15.8177 11.0956 15.8177 10.5268 15.8177ZM24.6196 26.3988C24.7123 26.3836 24.8051 26.3702 24.8967 26.3503C25.6235 26.1957 26.2173 25.5897 26.3597 24.8587C26.3742 24.7788 26.3859 24.6995 26.3988 24.6202V10.3798C26.3865 10.3022 26.3754 10.2235 26.3608 10.1459C26.2045 9.3485 25.5465 8.72958 24.7392 8.61875C24.7053 8.61467 24.6732 8.60708 24.64 8.60125H10.3606C10.2748 8.617 10.1879 8.62867 10.1033 8.64792C9.31467 8.82758 8.73133 9.46225 8.61875 10.2614C8.61408 10.2947 8.60708 10.3279 8.60183 10.3612V24.64C8.61817 24.7298 8.631 24.8214 8.65142 24.9113C8.82583 25.6824 9.48383 26.2803 10.2672 26.3812C10.3046 26.3859 10.3431 26.3935 10.381 26.3988H24.6196ZM17.5 35C7.83533 35 0 27.1647 0 17.5C0 7.83475 7.83533 0 17.5 0C27.1647 0 35 7.83475 35 17.5C35 27.1647 27.1647 35 17.5 35Z" fill="#D6ECED"/>
</svg>
