<svg width="35" height="35" viewBox="0 0 35 35" fill="none" xmlns="http://www.w3.org/2000/svg">
<path d="M17.5 35C27.165 35 35 27.165 35 17.5C35 7.83502 27.165 0 17.5 0C7.83502 0 0 7.83502 0 17.5C0 27.165 7.83502 35 17.5 35Z" fill="#D6ECED"/>
<path d="M17.5 19.7969L27.9453 10.8555C27.7812 10.7461 27.5625 10.6641 27.3437 10.6641H7.65625C7.4375 10.6641 7.21875 10.7461 7.05469 10.8555L17.5 19.7969Z" fill="#031C44"/>
<path d="M18.2109 20.6172C17.8008 20.9727 17.1992 20.9727 16.7891 20.6172L6.5625 11.8945V23.2422C6.5625 23.8437 7.05469 24.3359 7.65625 24.3359H27.3438C27.9453 24.3359 28.4375 23.8437 28.4375 23.2422V11.8672L18.2109 20.6172Z" fill="#031C44"/>
</svg>
