<svg width="35" height="35" viewBox="0 0 35 35" fill="none" xmlns="http://www.w3.org/2000/svg">
<path d="M17.5 0C14.0388 0 10.6554 1.02636 7.77753 2.94928C4.89967 4.87221 2.65665 7.60533 1.33212 10.803C0.00758255 14.0007 -0.338976 17.5194 0.336265 20.9141C1.01151 24.3087 2.67822 27.4269 5.12564 29.8744C7.57306 32.3218 10.6913 33.9885 14.0859 34.6637C17.4806 35.339 20.9993 34.9924 24.197 33.6679C27.3947 32.3434 30.1278 30.1003 32.0507 27.2225C33.9736 24.3446 35 20.9612 35 17.5C35 12.8587 33.1563 8.40752 29.8744 5.12563C26.5925 1.84374 22.1413 0 17.5 0ZM18.488 9.34791C22.3854 9.46823 25.7542 12.9937 25.7068 16.7745C25.7037 16.8708 25.7098 16.9673 25.725 17.0625C25.725 17.3724 25.7068 17.6932 25.2766 17.6823C24.788 17.6823 24.8573 17.201 24.8281 16.8328V16.7344C24.3068 12.724 22.4401 10.8245 18.3714 10.2083C18.0323 10.1682 17.5219 10.2266 17.5328 9.79635C17.5802 9.1474 18.1781 9.39896 18.488 9.34791ZM23.6979 16.5849C23.6989 16.6264 23.6916 16.6676 23.6765 16.7063C23.6614 16.7449 23.6388 16.7802 23.61 16.81C23.5812 16.8399 23.5467 16.8637 23.5086 16.8801C23.4705 16.8966 23.4295 16.9053 23.388 16.9057C22.9469 16.9859 22.8776 16.7271 22.8484 16.4354C22.8488 16.3218 22.8391 16.2083 22.8193 16.0964C22.3891 13.6573 21.5104 12.7604 19.0094 12.2062C18.6448 12.126 18.0688 12.1661 18.1708 11.6156C18.2729 11.0651 18.7724 11.251 19.1698 11.3057C21.6672 11.6156 23.7198 13.7448 23.7089 16.0927C23.6979 16.2349 23.7161 16.4354 23.6979 16.5849ZM21.6198 16.2641C21.5526 16.3008 21.4776 16.3208 21.401 16.3224C21.3381 16.3297 21.2744 16.3216 21.2153 16.2987C21.1562 16.2758 21.1036 16.2389 21.062 16.1911C20.9927 16.0907 20.9512 15.9737 20.9417 15.8521C20.9299 15.4034 20.7511 14.9753 20.4402 14.6516C20.1293 14.3279 19.7088 14.1319 19.2609 14.1021C18.951 14.051 18.6412 13.9417 18.7906 13.5443C18.8891 13.2635 19.1552 13.2344 19.4104 13.2344C20.5042 13.2052 21.8203 14.5141 21.7984 15.6443C21.8211 15.7552 21.8156 15.87 21.7825 15.9783C21.7494 16.0865 21.6897 16.1848 21.6089 16.2641H21.6198ZM25.7688 23.3005C25.3385 24.4818 23.8583 25.6885 22.5896 25.6703C22.2997 25.6211 22.0153 25.5442 21.7401 25.4406C17.1901 23.5338 13.6719 20.6135 11.2802 16.6141C10.721 15.6801 10.2335 14.7051 9.82188 13.6974C9.05261 11.849 9.85105 10.2885 11.8016 9.63958C12.1355 9.53019 12.4957 9.53019 12.8297 9.63958C13.6682 9.94948 15.7682 12.7786 15.8083 13.6281C15.8375 14.2771 15.4 14.6271 14.9479 14.9187C14.7198 15.0398 14.5304 15.2227 14.4014 15.4465C14.2725 15.6702 14.2092 15.9258 14.2188 16.1839C14.2408 16.4605 14.3124 16.731 14.4302 16.9823C15.2283 18.7242 16.6635 20.0941 18.4406 20.8104C19.0896 21.1021 19.7203 21.0693 20.1688 20.4094C20.9599 19.2391 21.937 19.3156 23.0089 20.0193C23.5302 20.3839 24.1026 20.7484 24.5984 21.1495C25.2984 21.7146 26.1771 22.1521 25.7578 23.3005H25.7688Z" fill="#D6ECED"/>
</svg>
