<svg width="35" height="35" viewBox="0 0 35 35" fill="none" xmlns="http://www.w3.org/2000/svg">
<path d="M17.5 0C7.83499 0 0 7.83499 0 17.5C0 27.165 7.83499 35 17.5 35C27.165 35 35 27.165 35 17.5C35 7.83499 27.165 0 17.5 0ZM28.0824 12.8331C28.0906 13.0397 28.0949 13.2466 28.0949 13.4547C28.0949 20.9302 22.4064 28.6624 12.8872 28.6624C9.97724 28.6624 7.14394 27.8321 4.69376 26.2606C4.64256 26.228 4.62143 26.1646 4.64184 26.1077C4.66225 26.0511 4.7199 26.016 4.77898 26.0228C5.19003 26.0719 5.61038 26.0962 6.02752 26.0962C8.29151 26.0962 10.4348 25.3962 12.2477 24.0682C10.0746 23.8849 8.20701 22.4143 7.53529 20.3165C7.52133 20.2728 7.53136 20.2252 7.56143 20.1908C7.59187 20.1564 7.63841 20.1414 7.68281 20.1496C8.28506 20.2638 8.89734 20.2714 9.48742 20.1754C7.24634 19.479 5.67125 17.3797 5.67125 14.9897L5.67197 14.9202C5.67304 14.8747 5.69775 14.8332 5.73714 14.8106C5.77616 14.7877 5.82486 14.7874 5.86425 14.8096C6.44859 15.134 7.09524 15.3424 7.75872 15.4222C6.47079 14.3957 5.71458 12.8395 5.71458 11.1749C5.71458 10.2146 5.9688 9.27079 6.45003 8.44547C6.47151 8.40859 6.50946 8.38496 6.55171 8.38174C6.59432 8.37744 6.6355 8.39606 6.66235 8.429C9.29836 11.6623 13.1758 13.653 17.322 13.9091C17.2529 13.561 17.2179 13.2023 17.2179 12.8403C17.2179 9.84655 19.6534 7.41141 22.6467 7.41141C24.1183 7.41141 25.5405 8.01616 26.5599 9.07315C27.7089 8.83898 28.8035 8.41647 29.8146 7.81708C29.8608 7.78951 29.9188 7.79381 29.9614 7.82711C30.003 7.86077 30.0202 7.91662 30.0037 7.96818C29.661 9.03985 28.9929 9.97473 28.0952 10.6497C28.9406 10.5025 29.7609 10.254 30.5411 9.90777C30.5934 9.88379 30.6553 9.89882 30.6929 9.94286C30.7302 9.98726 30.7334 10.0506 30.7012 10.0986C29.9904 11.1624 29.1096 12.0823 28.0824 12.8331Z" fill="#D6ECED"/>
</svg>
