<svg width="35" height="35" viewBox="0 0 35 35" fill="none" xmlns="http://www.w3.org/2000/svg">
<path d="M17.5 0C7.83535 0 0 7.83499 0 17.5C0 27.165 7.83535 35 17.5 35C27.1647 35 35 27.165 35 17.5C35 7.83499 27.1647 0 17.5 0ZM29.8719 11.7425C29.7624 14.1536 28.0766 17.4567 24.8201 21.6484C21.4537 26.0271 18.6042 28.2166 16.2722 28.2166C14.8296 28.2166 13.6083 26.8836 12.6097 24.2161C11.9433 21.7716 11.2763 19.3282 10.6103 16.8834C9.87018 14.2173 9.07529 12.8825 8.22455 12.8825C8.0398 12.8825 7.39028 13.2731 6.27995 14.0501L5.11555 12.5481C6.33688 11.475 7.54317 10.3997 8.72941 9.32343C10.3604 7.91519 11.5835 7.17366 12.4002 7.09847C14.3276 6.91335 15.5142 8.23243 15.9596 11.0528C16.4409 14.0977 16.7735 15.9915 16.9604 16.732C17.5158 19.2581 18.1277 20.5198 18.7944 20.5198C19.3132 20.5198 20.093 19.6995 21.1307 18.0625C22.1676 16.4237 22.7233 15.1762 22.7982 14.3215C22.946 12.9069 22.39 12.1983 21.1307 12.1983C20.537 12.1983 19.9251 12.3336 19.2971 12.6047C20.5141 8.61662 22.8401 6.67847 26.2735 6.78803C28.8192 6.86286 30.0184 8.51422 29.8719 11.7425Z" fill="#D6ECED"/>
</svg>
