<svg width="189" height="91" viewBox="0 0 189 91" fill="none" xmlns="http://www.w3.org/2000/svg">
<g filter="url(#filter0_d_20_1637)">
<path d="M20.2617 0.40625H22.4238V17.7383C22.4238 19.6602 22.0195 21.2598 21.2109 22.5371C20.4023 23.8145 19.3125 24.7695 17.9414 25.4023C16.582 26.0352 15.0762 26.3516 13.4238 26.3516C11.7246 26.3516 10.1953 26.0352 8.83594 25.4023C7.47656 24.7695 6.39844 23.8145 5.60156 22.5371C4.81641 21.2598 4.42383 19.6602 4.42383 17.7383V0.40625H6.56836V17.7383C6.56836 19.2266 6.86133 20.4746 7.44727 21.4824C8.0332 22.4902 8.8418 23.2461 9.87305 23.75C10.9043 24.2539 12.0879 24.5059 13.4238 24.5059C14.748 24.5059 15.9258 24.2539 16.957 23.75C17.9883 23.2461 18.7969 22.4902 19.3828 21.4824C19.9688 20.4746 20.2617 19.2266 20.2617 17.7383V0.40625ZM47.5605 0.40625V26H45.3809L30.668 4.13281V26H28.5059V0.40625H30.668L45.416 22.2734V0.40625H47.5605ZM61.0957 26H55.2949L55.3301 24.1543H61.0957C62.9355 24.1543 64.5176 23.7441 65.8418 22.9238C67.1777 22.0918 68.209 20.9434 68.9355 19.4785C69.6621 18.0137 70.0254 16.3145 70.0254 14.3809V11.9902C70.0254 10.5137 69.8145 9.17773 69.3926 7.98242C68.9824 6.78711 68.3906 5.76758 67.6172 4.92383C66.8438 4.06836 65.918 3.41211 64.8398 2.95508C63.7734 2.49805 62.5781 2.26953 61.2539 2.26953H55.1895V0.40625H61.2539C62.8477 0.40625 64.3066 0.681641 65.6309 1.23242C66.9668 1.77148 68.1211 2.55664 69.0938 3.58789C70.0781 4.60742 70.834 5.83203 71.3613 7.26172C71.9004 8.69141 72.1699 10.2852 72.1699 12.043V14.3809C72.1699 16.1387 71.9004 17.7324 71.3613 19.1621C70.834 20.5918 70.0781 21.8164 69.0938 22.8359C68.1094 23.8555 66.9434 24.6406 65.5957 25.1914C64.248 25.7305 62.748 26 61.0957 26ZM56.2617 0.40625V26H54.0996V0.40625H56.2617ZM93.5977 24.1543V26H79.2012V24.1543H93.5977ZM79.8516 0.40625V26H77.6895V0.40625H79.8516ZM91.8047 11.8848V13.7305H79.2012V11.8848H91.8047ZM93.5098 0.40625V2.26953H79.2012V0.40625H93.5098ZM98.1328 0.40625H106.447C108.217 0.40625 109.752 0.693359 111.053 1.26758C112.354 1.8418 113.355 2.69141 114.059 3.81641C114.773 4.92969 115.131 6.30078 115.131 7.92969C115.131 9.13672 114.873 10.2324 114.357 11.2168C113.854 12.2012 113.156 13.0273 112.266 13.6953C111.375 14.3516 110.344 14.8027 109.172 15.0488L108.416 15.3301H99.5391L99.5039 13.4844H106.939C108.275 13.4844 109.389 13.2266 110.279 12.7109C111.17 12.1953 111.838 11.5156 112.283 10.6719C112.74 9.81641 112.969 8.90234 112.969 7.92969C112.969 6.76953 112.717 5.76758 112.213 4.92383C111.721 4.06836 110.988 3.41211 110.016 2.95508C109.043 2.49805 107.854 2.26953 106.447 2.26953H100.295V26H98.1328V0.40625ZM113.936 26L107.309 14.5566L109.629 14.5391L116.238 25.7715V26H113.936ZM57.4453 54H53.7305L53.7539 51.2578H57.4453C58.3672 51.2578 59.1445 51.0508 59.7773 50.6367C60.4102 50.2148 60.8867 49.6016 61.207 48.7969C61.5352 47.9922 61.6992 47.0195 61.6992 45.8789V45.0469C61.6992 44.1719 61.6055 43.4023 61.418 42.7383C61.2383 42.0742 60.9688 41.5156 60.6094 41.0625C60.25 40.6094 59.8086 40.2695 59.2852 40.043C58.7617 39.8086 58.1602 39.6914 57.4805 39.6914H53.6602V36.9375H57.4805C58.6211 36.9375 59.6641 37.1328 60.6094 37.5234C61.5625 37.9062 62.3867 38.457 63.082 39.1758C63.7773 39.8945 64.3125 40.7539 64.6875 41.7539C65.0703 42.7461 65.2617 43.8516 65.2617 45.0703V45.8789C65.2617 47.0898 65.0703 48.1953 64.6875 49.1953C64.3125 50.1953 63.7773 51.0547 63.082 51.7734C62.3945 52.4844 61.5703 53.0352 60.6094 53.4258C59.6562 53.8086 58.6016 54 57.4453 54ZM55.7227 36.9375V54H52.207V36.9375H55.7227ZM71.5547 36.9375V54H68.0508V36.9375H71.5547ZM81 50.4375L85.0195 36.9375H88.9336L82.9922 54H80.4141L81 50.4375ZM77.2969 36.9375L81.3047 50.4375L81.9141 54H79.3125L73.4062 36.9375H77.2969ZM94.2656 36.9375V54H90.7617V36.9375H94.2656ZM111.445 36.9375V54H107.93L101.074 42.5625V54H97.5586V36.9375H101.074L107.941 48.3867V36.9375H111.445ZM128.027 45.082V51.8438C127.762 52.1641 127.352 52.5117 126.797 52.8867C126.242 53.2539 125.527 53.5703 124.652 53.8359C123.777 54.1016 122.719 54.2344 121.477 54.2344C120.375 54.2344 119.371 54.0547 118.465 53.6953C117.559 53.3281 116.777 52.793 116.121 52.0898C115.473 51.3867 114.973 50.5273 114.621 49.5117C114.27 48.4883 114.094 47.3203 114.094 46.0078V44.9414C114.094 43.6289 114.262 42.4609 114.598 41.4375C114.941 40.4141 115.43 39.5508 116.062 38.8477C116.695 38.1445 117.449 37.6094 118.324 37.2422C119.199 36.875 120.172 36.6914 121.242 36.6914C122.727 36.6914 123.945 36.9336 124.898 37.418C125.852 37.8945 126.578 38.5586 127.078 39.4102C127.586 40.2539 127.898 41.2227 128.016 42.3164H124.605C124.52 41.7383 124.355 41.2344 124.113 40.8047C123.871 40.375 123.523 40.0391 123.07 39.7969C122.625 39.5547 122.047 39.4336 121.336 39.4336C120.75 39.4336 120.227 39.5547 119.766 39.7969C119.312 40.0312 118.93 40.3789 118.617 40.8398C118.305 41.3008 118.066 41.8711 117.902 42.5508C117.738 43.2305 117.656 44.0195 117.656 44.918V46.0078C117.656 46.8984 117.742 47.6875 117.914 48.375C118.086 49.0547 118.34 49.6289 118.676 50.0977C119.02 50.5586 119.441 50.9062 119.941 51.1406C120.441 51.375 121.023 51.4922 121.688 51.4922C122.242 51.4922 122.703 51.4453 123.07 51.3516C123.445 51.2578 123.746 51.1445 123.973 51.0117C124.207 50.8711 124.387 50.7383 124.512 50.6133V47.5898H121.301V45.082H128.027ZM74.6953 76.3398H78.1992C78.1289 77.4883 77.8125 78.5078 77.25 79.3984C76.6953 80.2891 75.918 80.9844 74.918 81.4844C73.9258 81.9844 72.7305 82.2344 71.332 82.2344C70.2383 82.2344 69.2578 82.0469 68.3906 81.6719C67.5234 81.2891 66.7812 80.7422 66.1641 80.0312C65.5547 79.3203 65.0898 78.4609 64.7695 77.4531C64.4492 76.4453 64.2891 75.3164 64.2891 74.0664V72.8828C64.2891 71.6328 64.4531 70.5039 64.7812 69.4961C65.1172 68.4805 65.5938 67.6172 66.2109 66.9062C66.8359 66.1953 67.582 65.6484 68.4492 65.2656C69.3164 64.8828 70.2852 64.6914 71.3555 64.6914C72.7773 64.6914 73.9766 64.9492 74.9531 65.4648C75.9375 65.9805 76.6992 66.6914 77.2383 67.5977C77.7852 68.5039 78.1133 69.5352 78.2227 70.6914H74.707C74.668 70.0039 74.5312 69.4219 74.2969 68.9453C74.0625 68.4609 73.707 68.0977 73.2305 67.8555C72.7617 67.6055 72.1367 67.4805 71.3555 67.4805C70.7695 67.4805 70.2578 67.5898 69.8203 67.8086C69.3828 68.0273 69.0156 68.3594 68.7188 68.8047C68.4219 69.25 68.1992 69.8125 68.0508 70.4922C67.9102 71.1641 67.8398 71.9531 67.8398 72.8594V74.0664C67.8398 74.9492 67.9062 75.7266 68.0391 76.3984C68.1719 77.0625 68.375 77.625 68.6484 78.0859C68.9297 78.5391 69.2891 78.8828 69.7266 79.1172C70.1719 79.3438 70.707 79.457 71.332 79.457C72.0664 79.457 72.6719 79.3398 73.1484 79.1055C73.625 78.8711 73.9883 78.5234 74.2383 78.0625C74.4961 77.6016 74.6484 77.0273 74.6953 76.3398ZM91.4766 79.2578V82H82.8867V79.2578H91.4766ZM84.0234 64.9375V82H80.5078V64.9375H84.0234ZM102.516 64.9375H106.02V76.2109C106.02 77.5234 105.738 78.6289 105.176 79.5273C104.621 80.4258 103.852 81.1016 102.867 81.5547C101.891 82.0078 100.766 82.2344 99.4922 82.2344C98.2188 82.2344 97.0859 82.0078 96.0938 81.5547C95.1094 81.1016 94.3359 80.4258 93.7734 79.5273C93.2188 78.6289 92.9414 77.5234 92.9414 76.2109V64.9375H96.457V76.2109C96.457 76.9766 96.5781 77.6016 96.8203 78.0859C97.0625 78.5703 97.4102 78.9258 97.8633 79.1523C98.3242 79.3789 98.8672 79.4922 99.4922 79.4922C100.133 79.4922 100.676 79.3789 101.121 79.1523C101.574 78.9258 101.918 78.5703 102.152 78.0859C102.395 77.6016 102.516 76.9766 102.516 76.2109V64.9375ZM115.594 74.5117H111.211L111.188 72.0977H114.867C115.516 72.0977 116.047 72.0156 116.461 71.8516C116.875 71.6797 117.184 71.4336 117.387 71.1133C117.598 70.7852 117.703 70.3867 117.703 69.918C117.703 69.3867 117.602 68.957 117.398 68.6289C117.203 68.3008 116.895 68.0625 116.473 67.9141C116.059 67.7656 115.523 67.6914 114.867 67.6914H112.43V82H108.914V64.9375H114.867C115.859 64.9375 116.746 65.0312 117.527 65.2188C118.316 65.4062 118.984 65.6914 119.531 66.0742C120.078 66.457 120.496 66.9414 120.785 67.5273C121.074 68.1055 121.219 68.793 121.219 69.5898C121.219 70.293 121.059 70.9414 120.738 71.5352C120.426 72.1289 119.93 72.6133 119.25 72.9883C118.578 73.3633 117.699 73.5703 116.613 73.6094L115.594 74.5117ZM115.441 82H110.25L111.621 79.2578H115.441C116.059 79.2578 116.562 79.1602 116.953 78.9648C117.344 78.7617 117.633 78.4883 117.82 78.1445C118.008 77.8008 118.102 77.4062 118.102 76.9609C118.102 76.4609 118.016 76.0273 117.844 75.6602C117.68 75.293 117.414 75.0117 117.047 74.8164C116.68 74.6133 116.195 74.5117 115.594 74.5117H112.207L112.23 72.0977H116.449L117.258 73.0469C118.297 73.0312 119.133 73.2148 119.766 73.5977C120.406 73.9727 120.871 74.4609 121.16 75.0625C121.457 75.6641 121.605 76.3086 121.605 76.9961C121.605 78.0898 121.367 79.0117 120.891 79.7617C120.414 80.5039 119.715 81.0625 118.793 81.4375C117.879 81.8125 116.762 82 115.441 82Z" fill="white"/>
<path d="M133.43 19.3027C133.43 18.8457 133.359 18.4355 133.219 18.0723C133.09 17.6973 132.844 17.3574 132.48 17.0527C132.117 16.7363 131.607 16.4258 130.951 16.1211C130.295 15.8164 129.445 15.5 128.402 15.1719C127.242 14.7969 126.141 14.375 125.098 13.9062C124.066 13.4375 123.152 12.8926 122.355 12.2715C121.57 11.6387 120.949 10.9062 120.492 10.0742C120.047 9.24219 119.824 8.27539 119.824 7.17383C119.824 6.10742 120.059 5.14062 120.527 4.27344C120.996 3.39453 121.652 2.64453 122.496 2.02344C123.34 1.39062 124.336 0.904297 125.484 0.564453C126.645 0.224609 127.916 0.0546875 129.299 0.0546875C131.186 0.0546875 132.832 0.394531 134.238 1.07422C135.645 1.75391 136.734 2.68555 137.508 3.86914C138.293 5.05273 138.686 6.40625 138.686 7.92969H133.447C133.447 7.17969 133.289 6.52344 132.973 5.96094C132.668 5.38672 132.199 4.93555 131.566 4.60742C130.945 4.2793 130.16 4.11523 129.211 4.11523C128.297 4.11523 127.535 4.25586 126.926 4.53711C126.316 4.80664 125.859 5.17578 125.555 5.64453C125.25 6.10156 125.098 6.61719 125.098 7.19141C125.098 7.625 125.203 8.01758 125.414 8.36914C125.637 8.7207 125.965 9.04883 126.398 9.35352C126.832 9.6582 127.365 9.94531 127.998 10.2148C128.631 10.4844 129.363 10.748 130.195 11.0059C131.59 11.4277 132.814 11.9023 133.869 12.4297C134.936 12.957 135.826 13.5488 136.541 14.2051C137.256 14.8613 137.795 15.6055 138.158 16.4375C138.521 17.2695 138.703 18.2129 138.703 19.2676C138.703 20.3809 138.486 21.377 138.053 22.2559C137.619 23.1348 136.992 23.8789 136.172 24.4883C135.352 25.0977 134.373 25.5605 133.236 25.877C132.1 26.1934 130.828 26.3516 129.422 26.3516C128.156 26.3516 126.908 26.1875 125.678 25.8594C124.447 25.5195 123.328 25.0098 122.32 24.3301C121.324 23.6504 120.527 22.7832 119.93 21.7285C119.332 20.6738 119.033 19.4258 119.033 17.9844H124.324C124.324 18.7812 124.447 19.4551 124.693 20.0059C124.939 20.5566 125.285 21.002 125.73 21.3418C126.188 21.6816 126.727 21.9277 127.348 22.0801C127.98 22.2324 128.672 22.3086 129.422 22.3086C130.336 22.3086 131.086 22.1797 131.672 21.9219C132.27 21.6641 132.709 21.3066 132.99 20.8496C133.283 20.3926 133.43 19.877 133.43 19.3027ZM159.463 21.8867V26H145.84V21.8867H159.463ZM147.562 0.40625V26H142.289V0.40625H147.562ZM157.688 10.8301V14.8379H145.84V10.8301H157.688ZM159.445 0.40625V4.53711H145.84V0.40625H159.445ZM172.945 4.7832L165.984 26H160.377L169.887 0.40625H173.455L172.945 4.7832ZM178.729 26L171.75 4.7832L171.188 0.40625H174.791L184.354 26H178.729ZM178.412 16.4727V20.6035H164.895V16.4727H178.412Z" fill="#FFB800"/>
</g>
<defs>
<filter id="filter0_d_20_1637" x="0.423828" y="0.0546875" width="187.93" height="90.1797" filterUnits="userSpaceOnUse" color-interpolation-filters="sRGB">
<feFlood flood-opacity="0" result="BackgroundImageFix"/>
<feColorMatrix in="SourceAlpha" type="matrix" values="0 0 0 0 0 0 0 0 0 0 0 0 0 0 0 0 0 0 127 0" result="hardAlpha"/>
<feOffset dy="4"/>
<feGaussianBlur stdDeviation="2"/>
<feComposite in2="hardAlpha" operator="out"/>
<feColorMatrix type="matrix" values="0 0 0 0 0 0 0 0 0 0 0 0 0 0 0 0 0 0 0.25 0"/>
<feBlend mode="normal" in2="BackgroundImageFix" result="effect1_dropShadow_20_1637"/>
<feBlend mode="normal" in="SourceGraphic" in2="effect1_dropShadow_20_1637" result="shape"/>
</filter>
</defs>
</svg>
